HIERARCHY
ROOT Hips
{
	OFFSET 0.000000 0.000000 0.000000
	CHANNELS 6 Xposition Yposition Zposition Xrotation Yrotation Zrotation
	JOINT Thigh.L
	{
		OFFSET 0.053814 0.030153 -0.091355
		CHANNELS 3 Xrotation Yrotation Zrotation
		JOINT Shin.L
		{
			OFFSET 0.052069 0.016539 -0.405093
			CHANNELS 3 Xrotation Yrotation Zrotation
			JOINT Foot.L
			{
				OFFSET -0.040821 0.032772 -0.424649
				CHANNELS 3 Xrotation Yrotation Zrotation
				JOINT Toe.L
				{
					OFFSET 0.044180 -0.117671 -0.062491
					CHANNELS 3 Xrotation Yrotation Zrotation
					End Site
					{
						OFFSET 0.000000 0.050000 0.000000
					}
				}
			}
		}
	}
	JOINT Thigh.R
	{
		OFFSET -0.059049 0.027612 -0.101573
		CHANNELS 3 Xrotation Yrotation Zrotation
		JOINT Shin.R
		{
			OFFSET -0.041655 0.021785 -0.389052
			CHANNELS 3 Xrotation Yrotation Zrotation
			JOINT Foot.R
			{
				OFFSET 0.015303 0.021446 -0.433361
				CHANNELS 3 Xrotation Yrotation Zrotation
				JOINT Toe.R
				{
					OFFSET -0.036701 -0.118448 -0.062564
					CHANNELS 3 Xrotation Yrotation Zrotation
					End Site
					{
						OFFSET 0.000000 0.050000 0.000000
					}
				}
			}
		}
	}
	JOINT Spine
	{
		OFFSET -0.001870 0.019227 0.108137
		CHANNELS 3 Xrotation Yrotation Zrotation
		JOINT Spine.2
		{
			OFFSET 0.006550 0.002438 0.132983
			CHANNELS 3 Xrotation Yrotation Zrotation
			JOINT Chest
			{
				OFFSET -0.010384 -0.023412 0.048799
				CHANNELS 3 Xrotation Yrotation Zrotation
				JOINT Neck
				{
					OFFSET -0.009412 0.029595 0.162821
					CHANNELS 3 Xrotation Yrotation Zrotation
					JOINT Head
					{
						OFFSET 0.022084 -0.021876 0.165396
						CHANNELS 3 Xrotation Yrotation Zrotation
						End Site
						{
							OFFSET 0.000000 0.050000 0.000000
						}
					}
				}
				JOINT Clavicle.L
				{
					OFFSET 0.043297 0.008512 0.083197
					CHANNELS 3 Xrotation Yrotation Zrotation
					JOINT UpperArm.L
					{
						OFFSET 0.105653 0.014263 0.060928
						CHANNELS 3 Xrotation Yrotation Zrotation
						JOINT ForeArm.L
						{
							OFFSET 0.260620 0.034946 -0.074233
							CHANNELS 3 Xrotation Yrotation Zrotation
							JOINT Hand.L
							{
								OFFSET 0.258221 0.006341 0.020987
								CHANNELS 3 Xrotation Yrotation Zrotation
								JOINT Thumb1.L
								{
									OFFSET 0.154570 0.002936 0.009718
									CHANNELS 3 Xrotation Yrotation Zrotation
									JOINT Thumb2.L
									{
										OFFSET 0.029892 0.000734 0.002429
										CHANNELS 3 Xrotation Yrotation Zrotation
										End Site
										{
											OFFSET 0.024910 0.000612 0.002025
										}
									}
								}
								JOINT Index1.L
								{
									OFFSET 0.137570 0.002936 0.009718
									CHANNELS 3 Xrotation Yrotation Zrotation
									JOINT Index2.L
									{
										OFFSET 0.029892 0.000734 0.002429
										CHANNELS 3 Xrotation Yrotation Zrotation
										JOINT Index3.L
										{
											OFFSET 0.021921 0.000538 0.001782
											CHANNELS 3 Xrotation Yrotation Zrotation
											End Site
											{
												OFFSET 0.017935 0.000440 0.001458
											}
										}
									}
								}
								JOINT Middle1.L
								{
									OFFSET 0.119570 0.002936 0.009718
									CHANNELS 3 Xrotation Yrotation Zrotation
									JOINT Middle2.L
									{
										OFFSET 0.030889 0.000759 0.002510
										CHANNELS 3 Xrotation Yrotation Zrotation
										JOINT Middle3.L
										{
											OFFSET 0.021921 0.000538 0.001782
											CHANNELS 3 Xrotation Yrotation Zrotation
											End Site
											{
												OFFSET 0.017935 0.000440 0.001458
											}
										}
									}
								}
								JOINT Ring1.L
								{
									OFFSET 0.101570 0.002936 0.009718
									CHANNELS 3 Xrotation Yrotation Zrotation
									JOINT Ring2.L
									{
										OFFSET 0.028896 0.000710 0.002349
										CHANNELS 3 Xrotation Yrotation Zrotation
										JOINT Ring3.L
										{
											OFFSET 0.019928 0.000489 0.001620
											CHANNELS 3 Xrotation Yrotation Zrotation
											End Site
											{
												OFFSET 0.016939 0.000416 0.001377
											}
										}
									}
								}
								JOINT Pinky1.L
								{
									OFFSET 0.085570 0.002936 0.009718
									CHANNELS 3 Xrotation Yrotation Zrotation
									JOINT Pinky2.L
									{
										OFFSET 0.023914 0.000587 0.001944
										CHANNELS 3 Xrotation Yrotation Zrotation
										JOINT Pinky3.L
										{
											OFFSET 0.016939 0.000416 0.001377
											CHANNELS 3 Xrotation Yrotation Zrotation
											End Site
											{
												OFFSET 0.013950 0.000343 0.001134
											}
										}
									}
								}
							}
						}
					}
				}
				JOINT Clavicle.R
				{
					OFFSET -0.041394 0.014543 0.082703
					CHANNELS 3 Xrotation Yrotation Zrotation
					JOINT UpperArm.R
					{
						OFFSET -0.091092 0.009486 0.056573
						CHANNELS 3 Xrotation Yrotation Zrotation
						JOINT ForeArm.R
						{
							OFFSET -0.276443 0.022257 -0.041838
							CHANNELS 3 Xrotation Yrotation Zrotation
							JOINT Hand.R
							{
								OFFSET -0.255124 0.018682 -0.003426
								CHANNELS 3 Xrotation Yrotation Zrotation
								JOINT Thumb1.R
								{
									OFFSET -0.154669 0.008763 -0.001607
									CHANNELS 3 Xrotation Yrotation Zrotation
									JOINT Thumb2.R
									{
										OFFSET -0.029917 0.002191 -0.000402
										CHANNELS 3 Xrotation Yrotation Zrotation
										End Site
										{
											OFFSET -0.024931 0.001826 -0.000335
										}
									}
								}
								JOINT Index1.R
								{
									OFFSET -0.137669 0.008763 -0.001607
									CHANNELS 3 Xrotation Yrotation Zrotation
									JOINT Index2.R
									{
										OFFSET -0.029917 0.002191 -0.000402
										CHANNELS 3 Xrotation Yrotation Zrotation
										JOINT Index3.R
										{
											OFFSET -0.021939 0.001607 -0.000295
											CHANNELS 3 Xrotation Yrotation Zrotation
											End Site
											{
												OFFSET -0.017950 0.001314 -0.000241
											}
										}
									}
								}
								JOINT Middle1.R
								{
									OFFSET -0.119669 0.008763 -0.001607
									CHANNELS 3 Xrotation Yrotation Zrotation
									JOINT Middle2.R
									{
										OFFSET -0.030914 0.002264 -0.000415
										CHANNELS 3 Xrotation Yrotation Zrotation
										JOINT Middle3.R
										{
											OFFSET -0.021939 0.001607 -0.000295
											CHANNELS 3 Xrotation Yrotation Zrotation
											End Site
											{
												OFFSET -0.017950 0.001314 -0.000241
											}
										}
									}
								}
								JOINT Ring1.R
								{
									OFFSET -0.101669 0.008763 -0.001607
									CHANNELS 3 Xrotation Yrotation Zrotation
									JOINT Ring2.R
									{
										OFFSET -0.028920 0.002118 -0.000388
										CHANNELS 3 Xrotation Yrotation Zrotation
										JOINT Ring3.R
										{
											OFFSET -0.019945 0.001460 -0.000268
											CHANNELS 3 Xrotation Yrotation Zrotation
											End Site
											{
												OFFSET -0.016953 0.001241 -0.000228
											}
										}
									}
								}
								JOINT Pinky1.R
								{
									OFFSET -0.085669 0.008763 -0.001607
									CHANNELS 3 Xrotation Yrotation Zrotation
									JOINT Pinky2.R
									{
										OFFSET -0.023934 0.001753 -0.000321
										CHANNELS 3 Xrotation Yrotation Zrotation
										JOINT Pinky3.R
										{
											OFFSET -0.016953 0.001241 -0.000228
											CHANNELS 3 Xrotation Yrotation Zrotation
											End Site
											{
												OFFSET -0.013961 0.001022 -0.000188
											}
										}
									}
								}
							}
						}
					}
				}
			}
		}
	}
}
MOTION
Frames: 5
Frame Time: 0.04166667
0.004188800 -0.055084107 1.103021 -8.237820 -0.217225 1.566499 4.888007 1.768602 -0.080896 5.287873 -0.133667 -4.947411 -3.025635 1.019585 9.257466 1.798560 -3.601565 1.100913 2.654110 -0.871304 0.176919 7.188566 1.870633 0.787031 -0.293709 -3.119963 -8.814832 1.194839 -0.516958 -0.356294 2.059607 1.743332 2.821523 7.810617 -3.965395 -2.854454 -5.175022 1.779364 0.513400 9.661246 1.705930 1.274388 12.484457 -1.377593 5.431289 6.407152 18.924183 0.835733 21.324282 50.712121 -23.305156 14.720605 -2.175438 -18.895150 3.733915 3.483962 -7.362198 0.000000 0.000000 0.000000 0.000000 0.000000 0.000000 0.000000 0.000000 0.000000 0.000000 0.000000 0.000000 0.000000 0.000000 0.000000 0.000000 0.000000 0.000000 0.000000 0.000000 0.000000 0.000000 0.000000 0.000000 0.000000 0.000000 0.000000 0.000000 0.000000 0.000000 0.000000 0.000000 0.000000 0.000000 0.000000 0.000000 0.000000 0.000000 0.000000 0.000000 0.000000 0.000000 3.708705 -12.988396 3.655346 32.437546 -53.489736 28.089178 9.530579 1.830273 24.563559 -0.804669 -3.002674 3.033605 0.000000 0.000000 0.000000 0.000000 0.000000 0.000000 0.000000 0.000000 0.000000 0.000000 0.000000 0.000000 0.000000 0.000000 0.000000 0.000000 0.000000 0.000000 0.000000 0.000000 0.000000 0.000000 0.000000 0.000000 0.000000 0.000000 0.000000 0.000000 0.000000 0.000000 0.000000 0.000000 0.000000 0.000000 0.000000 0.000000 0.000000 0.000000 0.000000 0.000000 0.000000 0.000000
0.003988606 -0.054723299 1.102980 -8.164180 -0.232305 1.468346 5.015952 1.803252 0.011580 4.925845 -0.166939 -4.729638 -2.956518 1.085445 9.146951 1.853774 -3.531728 1.122644 2.788313 -0.854454 0.101170 6.764328 1.892734 0.700600 -0.187669 -3.227388 -8.692248 1.197498 -0.445908 -0.313488 2.047743 1.769453 2.850228 7.842024 -3.995453 -2.860351 -5.290944 1.792755 0.512666 9.750617 1.709810 1.316445 12.486311 -1.341009 5.488233 6.460810 19.012844 0.865383 21.239499 50.608086 -23.161187 14.729575 -2.147643 -18.954960 3.889740 3.548929 -7.395621 0.000000 0.000000 0.000000 0.000000 0.000000 0.000000 0.000000 0.000000 0.000000 0.000000 0.000000 0.000000 0.000000 0.000000 0.000000 0.000000 0.000000 0.000000 0.000000 0.000000 0.000000 0.000000 0.000000 0.000000 0.000000 0.000000 0.000000 0.000000 0.000000 0.000000 0.000000 0.000000 0.000000 0.000000 0.000000 0.000000 0.000000 0.000000 0.000000 0.000000 0.000000 0.000000 3.774283 -13.049367 3.670695 32.382189 -53.395501 27.989409 9.594498 1.778060 24.719509 -0.674261 -2.998288 3.067649 0.000000 0.000000 0.000000 0.000000 0.000000 0.000000 0.000000 0.000000 0.000000 0.000000 0.000000 0.000000 0.000000 0.000000 0.000000 0.000000 0.000000 0.000000 0.000000 0.000000 0.000000 0.000000 0.000000 0.000000 0.000000 0.000000 0.000000 0.000000 0.000000 0.000000 0.000000 0.000000 0.000000 0.000000 0.000000 0.000000 0.000000 0.000000 0.000000 0.000000 0.000000 0.000000
0.003861542 -0.054320832 1.102924 -8.088741 -0.249056 1.318273 5.020480 1.872792 0.031593 4.796226 -0.220337 -4.585628 -2.939391 1.120330 9.154688 1.839783 -3.527970 1.155822 2.826395 -0.825623 0.059508 6.506998 1.916201 0.668099 -0.148286 -3.331253 -8.608941 1.202020 -0.369454 -0.267676 2.021941 1.776781 2.865450 7.907001 -4.001497 -2.865601 -5.351491 1.807567 0.519020 9.681089 1.706183 1.342374 12.420555 -1.287400 5.488481 6.481726 19.079239 0.880239 21.222600 50.518584 -23.106964 14.661630 -2.099753 -18.970497 4.030386 3.625143 -7.376502 0.000000 0.000000 0.000000 0.000000 0.000000 0.000000 0.000000 0.000000 0.000000 0.000000 0.000000 0.000000 0.000000 0.000000 0.000000 0.000000 0.000000 0.000000 0.000000 0.000000 0.000000 0.000000 0.000000 0.000000 0.000000 0.000000 0.000000 0.000000 0.000000 0.000000 0.000000 0.000000 0.000000 0.000000 0.000000 0.000000 0.000000 0.000000 0.000000 0.000000 0.000000 0.000000 3.759391 -13.071657 3.681295 32.403489 -53.341051 27.965761 9.532561 1.754703 24.889420 -0.630812 -2.960298 3.069945 0.000000 0.000000 0.000000 0.000000 0.000000 0.000000 0.000000 0.000000 0.000000 0.000000 0.000000 0.000000 0.000000 0.000000 0.000000 0.000000 0.000000 0.000000 0.000000 0.000000 0.000000 0.000000 0.000000 0.000000 0.000000 0.000000 0.000000 0.000000 0.000000 0.000000 0.000000 0.000000 0.000000 0.000000 0.000000 0.000000 0.000000 0.000000 0.000000 0.000000 0.000000 0.000000
0.003957780 -0.053666868 1.102874 -8.039619 -0.235871 1.304324 4.967173 1.883782 0.048215 4.775282 -0.245198 -4.532065 -2.935753 1.137100 9.138486 1.797069 -3.524400 1.170576 2.798267 -0.821089 0.067075 6.423522 1.906299 0.685398 -0.095621 -3.367813 -8.636551 1.182194 -0.225547 -0.185782 1.977116 1.767476 2.843889 8.022391 -4.014556 -2.874504 -5.397340 1.804972 0.522520 9.618508 1.724135 1.348849 12.333056 -1.302931 5.512337 6.472560 19.129746 0.833917 21.228984 50.462661 -23.070707 14.602763 -2.079263 -19.056261 4.090455 3.727316 -7.356671 0.000000 0.000000 0.000000 0.000000 0.000000 0.000000 0.000000 0.000000 0.000000 0.000000 0.000000 0.000000 0.000000 0.000000 0.000000 0.000000 0.000000 0.000000 0.000000 0.000000 0.000000 0.000000 0.000000 0.000000 0.000000 0.000000 0.000000 0.000000 0.000000 0.000000 0.000000 0.000000 0.000000 0.000000 0.000000 0.000000 0.000000 0.000000 0.000000 0.000000 0.000000 0.000000 3.774114 -13.086837 3.750662 32.324201 -53.270584 27.882251 9.486361 1.707196 24.996387 -0.632910 -2.961326 3.067840 0.000000 0.000000 0.000000 0.000000 0.000000 0.000000 0.000000 0.000000 0.000000 0.000000 0.000000 0.000000 0.000000 0.000000 0.000000 0.000000 0.000000 0.000000 0.000000 0.000000 0.000000 0.000000 0.000000 0.000000 0.000000 0.000000 0.000000 0.000000 0.000000 0.000000 0.000000 0.000000 0.000000 0.000000 0.000000 0.000000 0.000000 0.000000 0.000000 0.000000 0.000000 0.000000
0.003934521 -0.053131627 1.102800 -7.974961 -0.235546 1.284052 4.920438 1.889424 0.058195 4.729676 -0.250433 -4.489527 -2.906212 1.137607 9.099883 1.754830 -3.516787 1.189817 2.703960 -0.800437 0.078177 6.451274 1.882909 0.713970 -0.082441 -3.373815 -8.645724 1.172373 -0.110488 -0.118294 1.981318 1.771411 2.825699 8.082090 -4.025452 -2.879378 -5.430078 1.817260 0.524650 9.556712 1.709462 1.333440 12.233877 -1.344321 5.477530 6.460577 19.152080 0.833857 21.196639 50.425627 -23.049018 14.556484 -2.041866 -19.066232 4.118922 3.730226 -7.318197 0.000000 0.000000 0.000000 0.000000 0.000000 0.000000 0.000000 0.000000 0.000000 0.000000 0.000000 0.000000 0.000000 0.000000 0.000000 0.000000 0.000000 0.000000 0.000000 0.000000 0.000000 0.000000 0.000000 0.000000 0.000000 0.000000 0.000000 0.000000 0.000000 0.000000 0.000000 0.000000 0.000000 0.000000 0.000000 0.000000 0.000000 0.000000 0.000000 0.000000 0.000000 0.000000 3.774288 -13.083790 3.786057 32.259831 -53.261754 27.845359 9.404174 1.644668 25.035270 -0.670445 -2.914053 3.095077 0.000000 0.000000 0.000000 0.000000 0.000000 0.000000 0.000000 0.000000 0.000000 0.000000 0.000000 0.000000 0.000000 0.000000 0.000000 0.000000 0.000000 0.000000 0.000000 0.000000 0.000000 0.000000 0.000000 0.000000 0.000000 0.000000 0.000000 0.000000 0.000000 0.000000 0.000000 0.000000 0.000000 0.000000 0.000000 0.000000 0.000000 0.000000 0.000000 0.000000 0.000000 0.000000
